<mxfile host="app.diagrams.net" modified="2023-05-13T03:37:15.240Z" agent="Mozilla/5.0 (Windows NT 10.0; Win64; x64) AppleWebKit/537.36 (KHTML, like Gecko) Chrome/113.0.0.0 Safari/537.36" etag="Coyr_ZTnGAFZruTJuiYg" version="21.3.0" type="device">
  <diagram name="Trang-1" id="GqdEET4nG706YiAhcrAF">
    <mxGraphModel dx="1434" dy="764" grid="1" gridSize="10" guides="1" tooltips="1" connect="1" arrows="1" fold="1" page="1" pageScale="1" pageWidth="827" pageHeight="1169" math="0" shadow="0">
      <root>
        <mxCell id="0" />
        <mxCell id="1" parent="0" />
        <mxCell id="5-y2Tem2iw2KDQWNsfBp-1" value="Client" style="shape=umlActor;verticalLabelPosition=bottom;verticalAlign=top;html=1;outlineConnect=0;" vertex="1" parent="1">
          <mxGeometry x="408" y="20" width="30" height="60" as="geometry" />
        </mxCell>
        <mxCell id="5-y2Tem2iw2KDQWNsfBp-5" value="Controller" style="ellipse;whiteSpace=wrap;html=1;" vertex="1" parent="1">
          <mxGeometry x="363" y="360" width="126" height="80" as="geometry" />
        </mxCell>
        <mxCell id="5-y2Tem2iw2KDQWNsfBp-6" value="index.php ( routes )" style="rounded=0;whiteSpace=wrap;html=1;" vertex="1" parent="1">
          <mxGeometry x="364.5" y="190" width="123" height="40" as="geometry" />
        </mxCell>
        <mxCell id="5-y2Tem2iw2KDQWNsfBp-8" value="View" style="ellipse;whiteSpace=wrap;html=1;" vertex="1" parent="1">
          <mxGeometry x="150" y="360" width="120" height="80" as="geometry" />
        </mxCell>
        <mxCell id="5-y2Tem2iw2KDQWNsfBp-9" value="Model" style="ellipse;whiteSpace=wrap;html=1;" vertex="1" parent="1">
          <mxGeometry x="363" y="580" width="120" height="80" as="geometry" />
        </mxCell>
        <mxCell id="5-y2Tem2iw2KDQWNsfBp-10" value="" style="endArrow=classic;html=1;rounded=0;entryX=0.5;entryY=0;entryDx=0;entryDy=0;" edge="1" parent="1" source="5-y2Tem2iw2KDQWNsfBp-1" target="5-y2Tem2iw2KDQWNsfBp-6">
          <mxGeometry width="50" height="50" relative="1" as="geometry">
            <mxPoint x="384" y="100" as="sourcePoint" />
            <mxPoint x="460" y="120" as="targetPoint" />
          </mxGeometry>
        </mxCell>
        <mxCell id="5-y2Tem2iw2KDQWNsfBp-11" value="request" style="text;html=1;align=center;verticalAlign=middle;resizable=0;points=[];autosize=1;strokeColor=none;fillColor=none;" vertex="1" parent="1">
          <mxGeometry x="429" y="120" width="60" height="30" as="geometry" />
        </mxCell>
        <mxCell id="5-y2Tem2iw2KDQWNsfBp-12" value="" style="endArrow=classic;html=1;rounded=0;entryX=0.5;entryY=0;entryDx=0;entryDy=0;exitX=0.5;exitY=1;exitDx=0;exitDy=0;" edge="1" parent="1" source="5-y2Tem2iw2KDQWNsfBp-6" target="5-y2Tem2iw2KDQWNsfBp-5">
          <mxGeometry width="50" height="50" relative="1" as="geometry">
            <mxPoint x="270" y="270" as="sourcePoint" />
            <mxPoint x="320" y="230" as="targetPoint" />
          </mxGeometry>
        </mxCell>
        <mxCell id="5-y2Tem2iw2KDQWNsfBp-13" value="" style="endArrow=classic;html=1;rounded=0;exitX=0;exitY=0.5;exitDx=0;exitDy=0;entryX=1;entryY=0.5;entryDx=0;entryDy=0;" edge="1" parent="1" source="5-y2Tem2iw2KDQWNsfBp-5" target="5-y2Tem2iw2KDQWNsfBp-8">
          <mxGeometry width="50" height="50" relative="1" as="geometry">
            <mxPoint x="240" y="380" as="sourcePoint" />
            <mxPoint x="290" y="330" as="targetPoint" />
          </mxGeometry>
        </mxCell>
        <mxCell id="5-y2Tem2iw2KDQWNsfBp-14" value="" style="endArrow=classic;html=1;rounded=0;exitX=0.575;exitY=-0.05;exitDx=0;exitDy=0;exitPerimeter=0;entryX=0.5;entryY=0.5;entryDx=0;entryDy=0;entryPerimeter=0;" edge="1" parent="1" source="5-y2Tem2iw2KDQWNsfBp-8" target="5-y2Tem2iw2KDQWNsfBp-1">
          <mxGeometry width="50" height="50" relative="1" as="geometry">
            <mxPoint x="170" y="340" as="sourcePoint" />
            <mxPoint x="220" y="290" as="targetPoint" />
          </mxGeometry>
        </mxCell>
        <mxCell id="5-y2Tem2iw2KDQWNsfBp-15" value="request" style="text;html=1;align=center;verticalAlign=middle;resizable=0;points=[];autosize=1;strokeColor=none;fillColor=none;" vertex="1" parent="1">
          <mxGeometry x="427.5" y="290" width="60" height="30" as="geometry" />
        </mxCell>
        <mxCell id="5-y2Tem2iw2KDQWNsfBp-16" value="data" style="text;html=1;align=center;verticalAlign=middle;resizable=0;points=[];autosize=1;strokeColor=none;fillColor=none;" vertex="1" parent="1">
          <mxGeometry x="310" y="360" width="50" height="30" as="geometry" />
        </mxCell>
        <mxCell id="5-y2Tem2iw2KDQWNsfBp-17" value="response" style="text;html=1;align=center;verticalAlign=middle;resizable=0;points=[];autosize=1;strokeColor=none;fillColor=none;" vertex="1" parent="1">
          <mxGeometry x="220" y="208" width="70" height="30" as="geometry" />
        </mxCell>
        <mxCell id="5-y2Tem2iw2KDQWNsfBp-18" value="" style="endArrow=classic;html=1;rounded=0;exitX=0.571;exitY=0.988;exitDx=0;exitDy=0;exitPerimeter=0;entryX=0.617;entryY=0.025;entryDx=0;entryDy=0;entryPerimeter=0;" edge="1" parent="1" source="5-y2Tem2iw2KDQWNsfBp-5" target="5-y2Tem2iw2KDQWNsfBp-9">
          <mxGeometry width="50" height="50" relative="1" as="geometry">
            <mxPoint x="370" y="550" as="sourcePoint" />
            <mxPoint x="420" y="500" as="targetPoint" />
          </mxGeometry>
        </mxCell>
        <mxCell id="5-y2Tem2iw2KDQWNsfBp-19" value="data" style="text;html=1;align=center;verticalAlign=middle;resizable=0;points=[];autosize=1;strokeColor=none;fillColor=none;" vertex="1" parent="1">
          <mxGeometry x="444" y="488" width="50" height="30" as="geometry" />
        </mxCell>
        <mxCell id="5-y2Tem2iw2KDQWNsfBp-20" value="" style="endArrow=classic;html=1;rounded=0;exitX=0.558;exitY=1;exitDx=0;exitDy=0;entryX=0;entryY=0.25;entryDx=0;entryDy=0;exitPerimeter=0;" edge="1" parent="1" source="5-y2Tem2iw2KDQWNsfBp-9" target="5-y2Tem2iw2KDQWNsfBp-21">
          <mxGeometry width="50" height="50" relative="1" as="geometry">
            <mxPoint x="560" y="620" as="sourcePoint" />
            <mxPoint x="590" y="800" as="targetPoint" />
          </mxGeometry>
        </mxCell>
        <mxCell id="5-y2Tem2iw2KDQWNsfBp-21" value="mysql database" style="rounded=0;whiteSpace=wrap;html=1;" vertex="1" parent="1">
          <mxGeometry x="550" y="820" width="120" height="60" as="geometry" />
        </mxCell>
        <mxCell id="5-y2Tem2iw2KDQWNsfBp-22" value="mysql statement" style="text;html=1;align=center;verticalAlign=middle;resizable=0;points=[];autosize=1;strokeColor=none;fillColor=none;" vertex="1" parent="1">
          <mxGeometry x="510" y="740" width="110" height="30" as="geometry" />
        </mxCell>
        <mxCell id="5-y2Tem2iw2KDQWNsfBp-23" value="" style="endArrow=classic;html=1;rounded=0;exitX=-0.008;exitY=0.633;exitDx=0;exitDy=0;entryX=0.425;entryY=0.988;entryDx=0;entryDy=0;entryPerimeter=0;exitPerimeter=0;" edge="1" parent="1" source="5-y2Tem2iw2KDQWNsfBp-21" target="5-y2Tem2iw2KDQWNsfBp-9">
          <mxGeometry width="50" height="50" relative="1" as="geometry">
            <mxPoint x="330" y="770" as="sourcePoint" />
            <mxPoint x="420" y="660" as="targetPoint" />
          </mxGeometry>
        </mxCell>
        <mxCell id="5-y2Tem2iw2KDQWNsfBp-24" value="data result" style="text;html=1;align=center;verticalAlign=middle;resizable=0;points=[];autosize=1;strokeColor=none;fillColor=none;" vertex="1" parent="1">
          <mxGeometry x="403" y="760" width="80" height="30" as="geometry" />
        </mxCell>
        <mxCell id="5-y2Tem2iw2KDQWNsfBp-25" value="" style="endArrow=classic;html=1;rounded=0;entryX=0.421;entryY=1.013;entryDx=0;entryDy=0;entryPerimeter=0;exitX=0.45;exitY=0;exitDx=0;exitDy=0;exitPerimeter=0;" edge="1" parent="1" source="5-y2Tem2iw2KDQWNsfBp-9" target="5-y2Tem2iw2KDQWNsfBp-5">
          <mxGeometry width="50" height="50" relative="1" as="geometry">
            <mxPoint x="50" y="640" as="sourcePoint" />
            <mxPoint x="100" y="590" as="targetPoint" />
          </mxGeometry>
        </mxCell>
        <mxCell id="5-y2Tem2iw2KDQWNsfBp-26" value="data result" style="text;html=1;align=center;verticalAlign=middle;resizable=0;points=[];autosize=1;strokeColor=none;fillColor=none;" vertex="1" parent="1">
          <mxGeometry x="334" y="488" width="80" height="30" as="geometry" />
        </mxCell>
        <mxCell id="5-y2Tem2iw2KDQWNsfBp-27" value="Controller" style="ellipse;whiteSpace=wrap;html=1;" vertex="1" parent="1">
          <mxGeometry x="758.5" y="370" width="126" height="80" as="geometry" />
        </mxCell>
        <mxCell id="5-y2Tem2iw2KDQWNsfBp-28" value="index.php ( routes )" style="rounded=0;whiteSpace=wrap;html=1;" vertex="1" parent="1">
          <mxGeometry x="760" y="190" width="123" height="40" as="geometry" />
        </mxCell>
        <mxCell id="5-y2Tem2iw2KDQWNsfBp-29" value="View" style="ellipse;whiteSpace=wrap;html=1;" vertex="1" parent="1">
          <mxGeometry x="1028" y="370" width="120" height="80" as="geometry" />
        </mxCell>
        <mxCell id="5-y2Tem2iw2KDQWNsfBp-30" value="Model" style="ellipse;whiteSpace=wrap;html=1;" vertex="1" parent="1">
          <mxGeometry x="758.5" y="580" width="120" height="80" as="geometry" />
        </mxCell>
        <mxCell id="5-y2Tem2iw2KDQWNsfBp-31" value="" style="endArrow=classic;html=1;rounded=0;entryX=0.5;entryY=0;entryDx=0;entryDy=0;exitX=0.5;exitY=0.5;exitDx=0;exitDy=0;exitPerimeter=0;" edge="1" parent="1" target="5-y2Tem2iw2KDQWNsfBp-28" source="5-y2Tem2iw2KDQWNsfBp-43">
          <mxGeometry width="50" height="50" relative="1" as="geometry">
            <mxPoint x="1085" y="90" as="sourcePoint" />
            <mxPoint x="1160" y="130" as="targetPoint" />
          </mxGeometry>
        </mxCell>
        <mxCell id="5-y2Tem2iw2KDQWNsfBp-32" value="request" style="text;html=1;align=center;verticalAlign=middle;resizable=0;points=[];autosize=1;strokeColor=none;fillColor=none;" vertex="1" parent="1">
          <mxGeometry x="824.5" y="120" width="60" height="30" as="geometry" />
        </mxCell>
        <mxCell id="5-y2Tem2iw2KDQWNsfBp-33" value="" style="endArrow=classic;html=1;rounded=0;entryX=0.5;entryY=0;entryDx=0;entryDy=0;exitX=0.5;exitY=1;exitDx=0;exitDy=0;" edge="1" parent="1" source="5-y2Tem2iw2KDQWNsfBp-28" target="5-y2Tem2iw2KDQWNsfBp-27">
          <mxGeometry width="50" height="50" relative="1" as="geometry">
            <mxPoint x="970" y="280" as="sourcePoint" />
            <mxPoint x="1020" y="240" as="targetPoint" />
          </mxGeometry>
        </mxCell>
        <mxCell id="5-y2Tem2iw2KDQWNsfBp-34" value="" style="endArrow=classic;html=1;rounded=0;exitX=1;exitY=0.5;exitDx=0;exitDy=0;entryX=0;entryY=0.5;entryDx=0;entryDy=0;" edge="1" parent="1" source="5-y2Tem2iw2KDQWNsfBp-27" target="5-y2Tem2iw2KDQWNsfBp-29">
          <mxGeometry width="50" height="50" relative="1" as="geometry">
            <mxPoint x="940" y="390" as="sourcePoint" />
            <mxPoint x="990" y="340" as="targetPoint" />
          </mxGeometry>
        </mxCell>
        <mxCell id="5-y2Tem2iw2KDQWNsfBp-35" value="" style="endArrow=classic;html=1;rounded=0;exitX=0.442;exitY=-0.012;exitDx=0;exitDy=0;exitPerimeter=0;entryX=0.5;entryY=0.5;entryDx=0;entryDy=0;entryPerimeter=0;" edge="1" parent="1" source="5-y2Tem2iw2KDQWNsfBp-29" target="5-y2Tem2iw2KDQWNsfBp-43">
          <mxGeometry width="50" height="50" relative="1" as="geometry">
            <mxPoint x="870" y="350" as="sourcePoint" />
            <mxPoint x="1085" y="60" as="targetPoint" />
          </mxGeometry>
        </mxCell>
        <mxCell id="5-y2Tem2iw2KDQWNsfBp-36" value="request" style="text;html=1;align=center;verticalAlign=middle;resizable=0;points=[];autosize=1;strokeColor=none;fillColor=none;" vertex="1" parent="1">
          <mxGeometry x="823" y="300" width="60" height="30" as="geometry" />
        </mxCell>
        <mxCell id="5-y2Tem2iw2KDQWNsfBp-37" value="data" style="text;html=1;align=center;verticalAlign=middle;resizable=0;points=[];autosize=1;strokeColor=none;fillColor=none;" vertex="1" parent="1">
          <mxGeometry x="910" y="370" width="50" height="30" as="geometry" />
        </mxCell>
        <mxCell id="5-y2Tem2iw2KDQWNsfBp-38" value="response" style="text;html=1;align=center;verticalAlign=middle;resizable=0;points=[];autosize=1;strokeColor=none;fillColor=none;" vertex="1" parent="1">
          <mxGeometry x="970" y="190" width="70" height="30" as="geometry" />
        </mxCell>
        <mxCell id="5-y2Tem2iw2KDQWNsfBp-39" value="" style="endArrow=classic;html=1;rounded=0;exitX=0.571;exitY=0.988;exitDx=0;exitDy=0;exitPerimeter=0;entryX=0.617;entryY=0.025;entryDx=0;entryDy=0;entryPerimeter=0;" edge="1" parent="1" source="5-y2Tem2iw2KDQWNsfBp-27" target="5-y2Tem2iw2KDQWNsfBp-30">
          <mxGeometry width="50" height="50" relative="1" as="geometry">
            <mxPoint x="1070" y="560" as="sourcePoint" />
            <mxPoint x="1120" y="510" as="targetPoint" />
          </mxGeometry>
        </mxCell>
        <mxCell id="5-y2Tem2iw2KDQWNsfBp-40" value="data" style="text;html=1;align=center;verticalAlign=middle;resizable=0;points=[];autosize=1;strokeColor=none;fillColor=none;" vertex="1" parent="1">
          <mxGeometry x="840" y="498" width="50" height="30" as="geometry" />
        </mxCell>
        <mxCell id="5-y2Tem2iw2KDQWNsfBp-41" value="" style="endArrow=classic;html=1;rounded=0;entryX=0.421;entryY=1.013;entryDx=0;entryDy=0;entryPerimeter=0;exitX=0.45;exitY=0;exitDx=0;exitDy=0;exitPerimeter=0;" edge="1" parent="1" source="5-y2Tem2iw2KDQWNsfBp-30" target="5-y2Tem2iw2KDQWNsfBp-27">
          <mxGeometry width="50" height="50" relative="1" as="geometry">
            <mxPoint x="750" y="650" as="sourcePoint" />
            <mxPoint x="800" y="600" as="targetPoint" />
          </mxGeometry>
        </mxCell>
        <mxCell id="5-y2Tem2iw2KDQWNsfBp-42" value="data result" style="text;html=1;align=center;verticalAlign=middle;resizable=0;points=[];autosize=1;strokeColor=none;fillColor=none;" vertex="1" parent="1">
          <mxGeometry x="726.5" y="498" width="80" height="30" as="geometry" />
        </mxCell>
        <mxCell id="5-y2Tem2iw2KDQWNsfBp-43" value="Admin" style="shape=umlActor;verticalLabelPosition=bottom;verticalAlign=top;html=1;outlineConnect=0;" vertex="1" parent="1">
          <mxGeometry x="806.5" y="20" width="30" height="60" as="geometry" />
        </mxCell>
        <mxCell id="5-y2Tem2iw2KDQWNsfBp-45" value="" style="endArrow=classic;html=1;rounded=0;entryX=0.421;entryY=1.013;entryDx=0;entryDy=0;entryPerimeter=0;exitX=1;exitY=0.25;exitDx=0;exitDy=0;" edge="1" parent="1" source="5-y2Tem2iw2KDQWNsfBp-21" target="5-y2Tem2iw2KDQWNsfBp-30">
          <mxGeometry width="50" height="50" relative="1" as="geometry">
            <mxPoint x="750" y="720" as="sourcePoint" />
            <mxPoint x="800" y="670" as="targetPoint" />
          </mxGeometry>
        </mxCell>
        <mxCell id="5-y2Tem2iw2KDQWNsfBp-46" value="" style="endArrow=classic;html=1;rounded=0;exitX=0.571;exitY=1.013;exitDx=0;exitDy=0;exitPerimeter=0;" edge="1" parent="1" source="5-y2Tem2iw2KDQWNsfBp-30">
          <mxGeometry width="50" height="50" relative="1" as="geometry">
            <mxPoint x="760" y="870" as="sourcePoint" />
            <mxPoint x="670" y="860" as="targetPoint" />
          </mxGeometry>
        </mxCell>
        <mxCell id="5-y2Tem2iw2KDQWNsfBp-47" value="mysql statement" style="text;html=1;align=center;verticalAlign=middle;resizable=0;points=[];autosize=1;strokeColor=none;fillColor=none;" vertex="1" parent="1">
          <mxGeometry x="750" y="760" width="110" height="30" as="geometry" />
        </mxCell>
        <mxCell id="5-y2Tem2iw2KDQWNsfBp-48" value="data result" style="text;html=1;align=center;verticalAlign=middle;resizable=0;points=[];autosize=1;strokeColor=none;fillColor=none;" vertex="1" parent="1">
          <mxGeometry x="650" y="740" width="80" height="30" as="geometry" />
        </mxCell>
        <mxCell id="5-y2Tem2iw2KDQWNsfBp-50" value="Operations on Motoserv MVC&amp;nbsp;&amp;nbsp;" style="swimlane;fontStyle=0;childLayout=stackLayout;horizontal=1;startSize=30;horizontalStack=0;resizeParent=1;resizeParentMax=0;resizeLast=0;collapsible=1;marginBottom=0;whiteSpace=wrap;html=1;" vertex="1" parent="1">
          <mxGeometry x="940" y="715" width="230" height="270" as="geometry" />
        </mxCell>
        <mxCell id="5-y2Tem2iw2KDQWNsfBp-51" value="Add&amp;nbsp; (use POST method)" style="text;strokeColor=none;fillColor=none;align=left;verticalAlign=middle;spacingLeft=4;spacingRight=4;overflow=hidden;points=[[0,0.5],[1,0.5]];portConstraint=eastwest;rotatable=0;whiteSpace=wrap;html=1;" vertex="1" parent="5-y2Tem2iw2KDQWNsfBp-50">
          <mxGeometry y="30" width="230" height="30" as="geometry" />
        </mxCell>
        <mxCell id="5-y2Tem2iw2KDQWNsfBp-52" value="Edit&amp;nbsp; (use POST Method)" style="text;strokeColor=none;fillColor=none;align=left;verticalAlign=middle;spacingLeft=4;spacingRight=4;overflow=hidden;points=[[0,0.5],[1,0.5]];portConstraint=eastwest;rotatable=0;whiteSpace=wrap;html=1;" vertex="1" parent="5-y2Tem2iw2KDQWNsfBp-50">
          <mxGeometry y="60" width="230" height="30" as="geometry" />
        </mxCell>
        <mxCell id="5-y2Tem2iw2KDQWNsfBp-53" value="Delete (use POST Method)" style="text;strokeColor=none;fillColor=none;align=left;verticalAlign=middle;spacingLeft=4;spacingRight=4;overflow=hidden;points=[[0,0.5],[1,0.5]];portConstraint=eastwest;rotatable=0;whiteSpace=wrap;html=1;" vertex="1" parent="5-y2Tem2iw2KDQWNsfBp-50">
          <mxGeometry y="90" width="230" height="30" as="geometry" />
        </mxCell>
        <mxCell id="5-y2Tem2iw2KDQWNsfBp-54" value="Read (use request Method)" style="text;strokeColor=none;fillColor=none;align=left;verticalAlign=middle;spacingLeft=4;spacingRight=4;overflow=hidden;points=[[0,0.5],[1,0.5]];portConstraint=eastwest;rotatable=0;whiteSpace=wrap;html=1;" vertex="1" parent="5-y2Tem2iw2KDQWNsfBp-50">
          <mxGeometry y="120" width="230" height="30" as="geometry" />
        </mxCell>
        <mxCell id="5-y2Tem2iw2KDQWNsfBp-55" value="Search (use GET Method)" style="text;strokeColor=none;fillColor=none;align=left;verticalAlign=middle;spacingLeft=4;spacingRight=4;overflow=hidden;points=[[0,0.5],[1,0.5]];portConstraint=eastwest;rotatable=0;whiteSpace=wrap;html=1;" vertex="1" parent="5-y2Tem2iw2KDQWNsfBp-50">
          <mxGeometry y="150" width="230" height="30" as="geometry" />
        </mxCell>
        <mxCell id="5-y2Tem2iw2KDQWNsfBp-56" value="Filter (use GET Method)" style="text;strokeColor=none;fillColor=none;align=left;verticalAlign=middle;spacingLeft=4;spacingRight=4;overflow=hidden;points=[[0,0.5],[1,0.5]];portConstraint=eastwest;rotatable=0;whiteSpace=wrap;html=1;" vertex="1" parent="5-y2Tem2iw2KDQWNsfBp-50">
          <mxGeometry y="180" width="230" height="30" as="geometry" />
        </mxCell>
        <mxCell id="5-y2Tem2iw2KDQWNsfBp-57" value="Classify (use GET Method)" style="text;strokeColor=none;fillColor=none;align=left;verticalAlign=middle;spacingLeft=4;spacingRight=4;overflow=hidden;points=[[0,0.5],[1,0.5]];portConstraint=eastwest;rotatable=0;whiteSpace=wrap;html=1;" vertex="1" parent="5-y2Tem2iw2KDQWNsfBp-50">
          <mxGeometry y="210" width="230" height="30" as="geometry" />
        </mxCell>
        <mxCell id="5-y2Tem2iw2KDQWNsfBp-64" value="Require a View (use Request Method)" style="text;strokeColor=none;fillColor=none;align=left;verticalAlign=middle;spacingLeft=4;spacingRight=4;overflow=hidden;points=[[0,0.5],[1,0.5]];portConstraint=eastwest;rotatable=0;whiteSpace=wrap;html=1;" vertex="1" parent="5-y2Tem2iw2KDQWNsfBp-50">
          <mxGeometry y="240" width="230" height="30" as="geometry" />
        </mxCell>
        <mxCell id="5-y2Tem2iw2KDQWNsfBp-58" value="API" style="rounded=0;whiteSpace=wrap;html=1;" vertex="1" parent="1">
          <mxGeometry x="590" y="389" width="85" height="42" as="geometry" />
        </mxCell>
        <mxCell id="5-y2Tem2iw2KDQWNsfBp-60" value="" style="endArrow=classic;html=1;rounded=0;exitX=0.02;exitY=0.363;exitDx=0;exitDy=0;exitPerimeter=0;" edge="1" parent="1" source="5-y2Tem2iw2KDQWNsfBp-27">
          <mxGeometry width="50" height="50" relative="1" as="geometry">
            <mxPoint x="690" y="390" as="sourcePoint" />
            <mxPoint x="680" y="400" as="targetPoint" />
          </mxGeometry>
        </mxCell>
        <mxCell id="5-y2Tem2iw2KDQWNsfBp-61" value="" style="endArrow=classic;html=1;rounded=0;exitX=1;exitY=0.75;exitDx=0;exitDy=0;entryX=-0.004;entryY=0.625;entryDx=0;entryDy=0;entryPerimeter=0;" edge="1" parent="1" source="5-y2Tem2iw2KDQWNsfBp-58" target="5-y2Tem2iw2KDQWNsfBp-27">
          <mxGeometry width="50" height="50" relative="1" as="geometry">
            <mxPoint x="700" y="530" as="sourcePoint" />
            <mxPoint x="750" y="480" as="targetPoint" />
          </mxGeometry>
        </mxCell>
        <mxCell id="5-y2Tem2iw2KDQWNsfBp-62" value="request" style="text;html=1;align=center;verticalAlign=middle;resizable=0;points=[];autosize=1;strokeColor=none;fillColor=none;" vertex="1" parent="1">
          <mxGeometry x="680" y="368" width="60" height="30" as="geometry" />
        </mxCell>
        <mxCell id="5-y2Tem2iw2KDQWNsfBp-63" value="result" style="text;html=1;align=center;verticalAlign=middle;resizable=0;points=[];autosize=1;strokeColor=none;fillColor=none;" vertex="1" parent="1">
          <mxGeometry x="690" y="420" width="50" height="30" as="geometry" />
        </mxCell>
      </root>
    </mxGraphModel>
  </diagram>
</mxfile>
